<?xml version="1.0" encoding="iso-8859-1"?>
<!-- Generator: Adobe Illustrator 19.0.0, SVG Export Plug-In . SVG Version: 6.00 Build 0)  -->
<svg version="1.1" id="Layer_1" xmlns="http://www.w3.org/2000/svg" xmlns:xlink="http://www.w3.org/1999/xlink" x="0px" y="0px"
	 viewBox="0 0 512 512" style="enable-background:new 0 0 512 512;" xml:space="preserve">
<g>
	<g>
		<g>
			<path d="M448,0c-35.355,0-64,28.645-64,64v323.221c0,40.637,14.807,79.868,41.658,110.339l6.316,7.188
				c8.134,9.257,22.397,9.717,31.11,1.003C494.412,474.425,512,431.965,512,387.669V64C512,28.645,483.355,0,448,0z
				 M469.333,387.669c0,24.912-7.471,49.042-21.18,69.41c-13.939-20.505-21.487-44.821-21.487-69.858V64
				c0-11.791,9.542-21.333,21.333-21.333S469.333,52.209,469.333,64V387.669z"/>
			<path d="M341.333,0H86.059h-0.725h-64C9.551,0,0,9.551,0,21.333v469.333C0,502.449,9.551,512,21.333,512h64h0.725h255.275
				c11.782,0,21.333-9.551,21.333-21.333V21.333C362.667,9.551,353.115,0,341.333,0z M42.667,42.667H64v426.667H42.667V42.667z
				 M320,469.333H107.392V42.667H320V469.333z"/>
			<path d="M149.333,213.333h128c11.782,0,21.333-9.551,21.333-21.333v-85.333c0-11.782-9.551-21.333-21.333-21.333h-128
				c-11.782,0-21.333,9.551-21.333,21.333V192C128,203.782,137.551,213.333,149.333,213.333z M170.667,128H256v42.667h-85.333V128z"
				/>
		</g>
	</g>
</g>
<g>
</g>
<g>
</g>
<g>
</g>
<g>
</g>
<g>
</g>
<g>
</g>
<g>
</g>
<g>
</g>
<g>
</g>
<g>
</g>
<g>
</g>
<g>
</g>
<g>
</g>
<g>
</g>
<g>
</g>
</svg>
